OpenSim_Sub07_CSBaseline_GRF.mot
version=1
nRows=59
nColumns=19
inDegrees=no
endheader
time	lFx	lFy	lFz	lCOPx	lCOPy	lCOPz	rFx	rFy	rFz	rCOPx	rCOPy	rCOPz	lMx	lMy	lMz	rMx	rMy	rMz
0	4.75545512	420.86688529	15.84672349	0.65230343	0	-0.59941987	-3.52985625	336.17535182	-8.82044369	0.66302480	0	-0.43134437	0	1.07289494	0	0	2.05366423	0
0.01000000	5.22541261	420.16756946	15.85093961	0.65176081	0	-0.59927786	-3.01288060	336.29560726	-9.03244246	0.66426214	0	-0.43129305	0	0.91800833	0	0	1.87577794	0
0.02000000	5.45494154	419.64935152	15.81222355	0.65146408	0	-0.59923120	-2.76821386	336.40931419	-9.11505498	0.66481083	0	-0.43123895	0	0.83921442	0	0	1.77498968	-0.00000000
0.03000000	5.51003762	419.25649538	15.73115364	0.65131020	0	-0.59923296	-2.71688838	336.52551247	-9.10321405	0.66496472	0	-0.43124250	0	0.82533084	0	0	1.74262004	0
0.04000000	5.47919571	418.97392576	15.62998970	0.65125515	0	-0.59923789	-2.74682786	336.65767662	-9.06298910	0.66480110	0	-0.43129079	0	0.84422790	0	0	1.74362827	0
0.05000000	5.42726225	418.81984554	15.54274825	0.65122240	0	-0.59923941	-2.77287493	336.89283682	-9.03721443	0.66442808	0	-0.43131212	0	0.87159618	0	0	1.74145250	-0.00000000
0.06000000	5.38911376	418.69374599	15.47651807	0.65111145	0	-0.59920731	-2.76213642	337.26234260	-9.04552158	0.66398031	0	-0.43129255	0	0.89354323	0	0	1.73107045	0
0.07000000	5.40454423	418.56169987	15.40719211	0.65087113	0	-0.59914376	-2.72089135	337.69028931	-9.08519005	0.66344874	0	-0.43128758	0	0.90950994	0	0	1.72243461	0.00000000
0.08000000	5.50310504	418.49780815	15.35750647	0.65052344	0	-0.59906736	-2.65625152	338.14200255	-9.13248043	0.66292603	0	-0.43133160	0	0.92080778	0	0	1.72272227	-0.00000000
0.09000000	5.66589184	418.51027117	15.34819565	0.65016000	0	-0.59897707	-2.57877238	338.55780667	-9.15809511	0.66254992	0	-0.43142164	0	0.92569810	0	0	1.73450446	0.00000000
0.10000000	5.83028759	418.56469601	15.35571651	0.64986214	0	-0.59886798	-2.50524157	338.84119595	-9.16186960	0.66229222	0	-0.43153377	0	0.92434870	0	0	1.75631084	-0.00000000
0.11000000	5.93702321	418.65156680	15.34625569	0.64963292	0	-0.59877366	-2.43311372	338.89881914	-9.17982339	0.66184666	0	-0.43164040	0	0.93409450	0	0	1.77854551	0.00000000
0.12000000	5.97968408	418.77325683	15.32840052	0.64943323	0	-0.59872576	-2.33523262	338.79818597	-9.21735226	0.66119110	0	-0.43170441	0	0.94868277	0	0	1.79432633	0.00000000
0.13000000	5.96889853	418.86775109	15.31061561	0.64920329	0	-0.59870877	-2.15286470	338.64929367	-9.24223571	0.66053218	0	-0.43172444	0	0.95728341	0	0	1.79339342	0
0.14000000	5.91944237	418.88056858	15.27664648	0.64902432	0	-0.59874098	-1.89140321	338.44587716	-9.24215992	0.65998351	0	-0.43176328	0	0.95104623	0	0	1.76907334	0
0.15000000	5.87019793	418.85671256	15.25723686	0.64892724	0	-0.59878419	-1.62573030	338.19138283	-9.23241494	0.65940812	0	-0.43186114	0	0.94075642	0	0	1.74588203	0.00000000
0.16000000	5.84416571	418.90793820	15.27568792	0.64889267	0	-0.59881361	-1.41060803	338.00594381	-9.20137092	0.65874373	0	-0.43200585	0	0.93601044	0	0	1.73635716	0
0.17000000	5.83940358	419.09769216	15.32482094	0.64885850	0	-0.59882389	-1.29406867	337.97459786	-9.16160851	0.65806126	0	-0.43219181	0	0.94044088	0	0	1.73486857	-0.00000000
0.18000000	5.85080095	419.40521471	15.38851301	0.64875945	0	-0.59880773	-1.31278753	338.18157981	-9.12097174	0.65741742	0	-0.43238426	0	0.95488746	0	0	1.73922066	0
0.19000000	5.86702306	419.68365531	15.43526750	0.64862829	0	-0.59876358	-1.47765437	338.62051202	-9.06317251	0.65703269	0	-0.43254422	0	0.97505212	0	0	1.73322959	0
0.20000000	5.87749173	419.78224420	15.44271788	0.64857892	0	-0.59873388	-1.72380412	339.07863640	-8.97843181	0.65692778	0	-0.43270185	0	0.99328931	0	0	1.71519605	0.00000000
0.21000000	5.88223396	419.66382026	15.43699921	0.64856551	0	-0.59872638	-1.96270773	339.38948257	-8.86142404	0.65687917	0	-0.43281894	0	1.01569515	0	0	1.70195369	0
0.22000000	5.88602685	419.25092176	15.44214336	0.64844950	0	-0.59868974	-2.14975061	339.54613516	-8.73580452	0.65670768	0	-0.43287810	0	1.03143716	0	0	1.70464547	-0.00000000
0.23000000	5.89282496	418.53002646	15.44566537	0.64818335	0	-0.59861596	-2.28460703	339.60528804	-8.64237942	0.65647415	0	-0.43291125	0	1.03722063	0	0	1.71420020	0
0.24000000	5.92165375	417.69219543	15.43510320	0.64784758	0	-0.59854375	-2.36750470	339.65133846	-8.61622082	0.65627377	0	-0.43290641	0	1.02610446	0	0	1.72110855	0
0.25000000	5.99766302	416.92252308	15.40530772	0.64750280	0	-0.59850027	-2.37717694	339.71240785	-8.65772711	0.65594617	0	-0.43290981	0	0.99808205	0	0	1.71905767	0
0.26000000	6.09670555	416.30677576	15.36493653	0.64721104	0	-0.59847808	-2.29997379	339.80476189	-8.73345710	0.65549367	0	-0.43297099	0	0.96683004	0	0	1.70085121	0
0.27000000	6.17511502	415.86811822	15.33834276	0.64705755	0	-0.59845849	-2.12871348	339.97880626	-8.78896822	0.65499180	0	-0.43306609	0	0.93929992	0	0	1.67653271	0
0.28000000	6.19642956	415.54680804	15.32826043	0.64695219	0	-0.59843648	-1.88489383	340.25642193	-8.82013518	0.65456482	0	-0.43318397	0	0.92665037	0	0	1.64712860	0
0.29000000	6.15923482	415.32346878	15.31430223	0.64690071	0	-0.59844817	-1.61273918	340.57451179	-8.83682682	0.65422584	0	-0.43332813	0	0.91635603	0	0	1.61468399	-0.00000000
0.30000000	6.07806184	415.16227327	15.29319343	0.64684047	0	-0.59845736	-1.33862664	340.90740213	-8.85883577	0.65388189	0	-0.43346172	0	0.89464995	0	0	1.58874567	0
0.31000000	5.99478883	415.01006729	15.26744506	0.64673111	0	-0.59840085	-1.06860968	341.24787729	-8.89715253	0.65342749	0	-0.43354637	0	0.86485865	0	0	1.56889053	0
0.32000000	5.93514033	414.89249751	15.23418973	0.64664921	0	-0.59831536	-0.82149679	341.54646985	-8.95271885	0.65282284	0	-0.43359760	0	0.84733062	0	0	1.56036028	0
0.33000000	5.90472144	414.83061105	15.19849301	0.64662206	0	-0.59824869	-0.62944602	341.81802700	-8.98819381	0.65228118	0	-0.43362680	0	0.85232470	0	0	1.55441839	0
0.34000000	5.90947643	414.81538352	15.17097216	0.64657501	0	-0.59821577	-0.53163128	342.10644307	-8.98024881	0.65195551	0	-0.43362542	0	0.87043842	0	0	1.54766136	0
0.35000000	5.92403237	414.78832144	15.16668998	0.64646997	0	-0.59819953	-0.54407735	342.40217089	-8.95539453	0.65185338	0	-0.43361792	0	0.88012226	0	0	1.54371185	0
0.36000000	5.90071627	414.68893880	15.15390869	0.64632695	0	-0.59820087	-0.64238880	342.63674286	-8.93058391	0.65180528	0	-0.43357499	0	0.87541833	0	0	1.54688437	-0.00000000
0.37000000	5.84024741	414.46368476	15.09931531	0.64611699	0	-0.59818232	-0.74571719	342.65347270	-8.93062309	0.65157559	0	-0.43353570	0	0.87503085	0	0	1.54138919	0
0.38000000	5.79414550	414.17187671	15.00679062	0.64579258	0	-0.59815502	-0.81245035	342.44058619	-8.97066984	0.65115938	0	-0.43355884	0	0.87820722	0	0	1.53056408	0
0.39000000	5.79914801	413.92203596	14.90582165	0.64546342	0	-0.59814695	-0.83150950	342.14362394	-9.04917378	0.65083749	0	-0.43365623	0	0.88489597	0	0	1.53310832	0
0.40000000	5.84240896	413.79852979	14.82284074	0.64526096	0	-0.59814832	-0.80626984	341.87334399	-9.10963313	0.65079062	0	-0.43377564	0	0.89235759	0	0	1.53640361	0.00000000
0.41000000	5.90289373	413.79156330	14.76255773	0.64522675	0	-0.59816046	-0.74679900	341.68288283	-9.11383958	0.65076951	0	-0.43389068	0	0.88297518	0	0	1.53939142	0
0.42000000	5.95361503	413.82895482	14.74199871	0.64522929	0	-0.59813349	-0.63877524	341.59089241	-9.06075062	0.65049166	0	-0.43397763	0	0.86982997	0	0	1.54782086	0
0.43000000	5.99515033	413.89886173	14.75474683	0.64515229	0	-0.59807674	-0.45838549	341.55328487	-8.97244671	0.64997308	0	-0.43404652	0	0.87156712	0	0	1.55462034	0.00000000
0.44000000	6.03068810	413.99378640	14.78441463	0.64497138	0	-0.59800155	-0.24335204	341.62437914	-8.87640902	0.64941072	0	-0.43411314	0	0.88882198	0	0	1.54923567	0.00000000
0.45000000	6.04881918	414.16738337	14.82907228	0.64476045	0	-0.59791796	-0.08544146	341.82742933	-8.80595485	0.64886287	0	-0.43420584	0	0.91085474	0	0	1.53389406	0
0.46000000	6.05404706	414.42402010	14.86786211	0.64454652	0	-0.59785969	-0.02688800	342.04725659	-8.76452988	0.64839257	0	-0.43431444	0	0.93116798	0	0	1.51557907	0
0.47000000	6.04096179	414.70042372	14.88890892	0.64439235	0	-0.59783483	-0.02828696	342.15193210	-8.74161190	0.64802935	0	-0.43441640	0	0.94378768	0	0	1.49233404	0
0.48000000	6.01966070	414.94294775	14.90282857	0.64428134	0	-0.59780602	-0.04118304	342.01057617	-8.72117805	0.64777490	0	-0.43452737	0	0.95109386	0	0	1.47024402	0
0.49000000	6.02721246	415.16188412	14.92268509	0.64418346	0	-0.59775976	-0.00464556	341.58350098	-8.69366866	0.64748163	0	-0.43464679	0	0.94991066	0	0	1.46836178	0
0.50000000	6.10046790	415.37344332	14.95686211	0.64410446	0	-0.59769590	0.10764102	341.00669635	-8.67207208	0.64720965	0	-0.43474360	0	0.93582318	0	0	1.47949780	0.00000000
0.51000000	6.24393167	415.63719027	15.01267247	0.64392600	0	-0.59763129	0.23703360	340.38189422	-8.66072815	0.64702365	0	-0.43480405	0	0.93013530	0	0	1.49049287	0
0.52000000	6.43880403	415.98432497	15.09255708	0.64367464	0	-0.59758850	0.33650574	339.73457350	-8.64164433	0.64682641	0	-0.43485880	0	0.92915222	0	0	1.49575194	0
0.53000000	6.62026147	416.36649763	15.18414969	0.64348985	0	-0.59754272	0.39006161	339.19274870	-8.60286741	0.64667803	0	-0.43490788	0	0.92108245	0	0	1.49266304	-0.00000000
0.54000000	6.75000928	416.73728597	15.27110681	0.64340985	0	-0.59749217	0.37650855	338.83370170	-8.52637964	0.64668250	0	-0.43490912	0	0.90602101	0	0	1.47259739	-0.00000000
0.55000000	6.80359143	417.08465881	15.32714092	0.64336807	0	-0.59746449	0.32038922	338.56580410	-8.42989387	0.64679617	0	-0.43486521	0	0.88901334	0	0	1.44445788	0
0.56000000	6.79950543	417.43701684	15.34912929	0.64329934	0	-0.59745093	0.23804636	338.20895693	-8.33619157	0.64679854	0	-0.43484034	0	0.88983355	0	0	1.43052161	0
0.57000000	6.78194814	417.80184076	15.37354418	0.64318047	0	-0.59740219	0.14622969	337.69401279	-8.28624411	0.64655498	0	-0.43485040	0	0.91284772	0	0	1.45034803	0
0.58000000	6.78827518	418.25084021	15.44772058	0.64308338	0	-0.59734890	0.08288562	337.12838697	-8.29058138	0.64627727	0	-0.43485312	0	0.93488619	0	0	1.48620986	0
